<?xml version="1.0" encoding="UTF-8"?>
<svg xmlns="http://www.w3.org/2000/svg" xmlns:xlink="http://www.w3.org/1999/xlink" viewBox="0 0 30 30" width="30px" height="30px">
<g id="surface27166761">
<path style=" stroke:none;fill-rule:nonzero;fill:rgb(0%,0%,0%);fill-opacity:1;" d="M 15 3.078125 C 21.585938 3.078125 26.921875 8.414062 26.921875 15 C 26.921875 21.585938 21.585938 26.921875 15 26.921875 C 8.414062 26.921875 3.078125 21.585938 3.078125 15 C 3.078125 8.414062 8.414062 3.078125 15 3.078125 Z M 19.113281 19.859375 C 19.332031 19.1875 20.359375 12.480469 20.488281 11.160156 C 20.523438 10.757812 20.398438 10.492188 20.152344 10.375 C 19.851562 10.230469 19.40625 10.300781 18.894531 10.488281 C 18.1875 10.742188 9.160156 14.574219 8.636719 14.796875 C 8.144531 15.007812 7.675781 15.234375 7.675781 15.570312 C 7.675781 15.800781 7.816406 15.933594 8.195312 16.070312 C 8.59375 16.210938 9.59375 16.515625 10.183594 16.675781 C 10.753906 16.835938 11.398438 16.699219 11.761719 16.472656 C 12.148438 16.234375 16.585938 13.261719 16.90625 13.003906 C 17.222656 12.742188 17.476562 13.074219 17.21875 13.335938 C 16.957031 13.597656 13.910156 16.554688 13.507812 16.964844 C 13.019531 17.460938 13.367188 17.976562 13.695312 18.183594 C 14.066406 18.417969 16.757812 20.222656 17.160156 20.511719 C 17.566406 20.800781 17.976562 20.929688 18.351562 20.929688 C 18.726562 20.929688 18.925781 20.433594 19.113281 19.859375 Z M 19.113281 19.859375 "/>
</g>
</svg>
